<svg xmlns="http://www.w3.org/2000/svg" viewBox="0 0 250 129.67">
  <defs>
    <style>
      .cls-1 {
        fill: #2f3542;
      }
    </style>
  </defs>
  <title>caticon</title>
  <g id="Layer_2" data-name="Layer 2">
    <g id="Layer_2-2" data-name="Layer 2">
      <g>
        <path class="cls-1" d="M125.6,95.26a17.83,17.83,0,0,0-.06,2.92c0,1,.1,1.93.21,2.88a42.77,42.77,0,0,0,.91,5.62c.12.45.22.9.35,1.34l.1.32a.52.52,0,0,0,0-.11l0,.07.07.14.31.59a25.06,25.06,0,0,0,1.4,2.32,29.68,29.68,0,0,0,3.43,4.19,25.57,25.57,0,0,0,4.08,3.36,14.19,14.19,0,0,0,4.47,1.91,25.18,25.18,0,0,0,5.13.69,36.33,36.33,0,0,0,5.4-.18c7.28-.71,14.58-2.89,21.72-5.52s14.14-5.94,21.24-9.36A82.23,82.23,0,0,1,175,120.1,66.07,66.07,0,0,1,152,127.27a33,33,0,0,1-12.65-1,18.21,18.21,0,0,1-6-3.1,26.72,26.72,0,0,1-4.5-4.52,28.82,28.82,0,0,1-3.31-5.35,26.43,26.43,0,0,1-1.18-2.91l-.24-.76-.16-.59,0-.4c0-.52-.09-1-.11-1.55a36.53,36.53,0,0,1,.33-6A21.15,21.15,0,0,1,125.6,95.26Z"/>
        <path class="cls-1" d="M55.78,107.71c7.29,3.61,14.47,7.09,21.83,9.93s14.88,5.14,22.38,5.9a34.38,34.38,0,0,0,5.54.15,21.18,21.18,0,0,0,5.19-.85,14.15,14.15,0,0,0,2.3-.92c.35-.22.68-.38,1-.64s.74-.5,1.1-.77a24.89,24.89,0,0,0,4-3.74,26.59,26.59,0,0,0,3.13-4.57c.22-.4.43-.82.61-1.21l.06-.14a1.05,1.05,0,0,0,0,.13l0-.08.09-.34c.06-.22.11-.45.16-.68a28.3,28.3,0,0,0,.5-2.83,44.08,44.08,0,0,0,.43-5.87,17.76,17.76,0,0,0-.15-2.93c-.14-1-.33-2-.45-3,.46.92.87,1.83,1.31,2.76a18.26,18.26,0,0,1,.94,3,38.49,38.49,0,0,1,.85,6.17,28.11,28.11,0,0,1,0,3.18q0,.41-.06.81l0,.41v.1a1.49,1.49,0,0,1-.08.32l0,.22c-.16.55-.33,1.07-.52,1.58a26.34,26.34,0,0,1-3,5.81,26,26,0,0,1-4.35,5c-.41.37-.85.71-1.28,1.07a16.78,16.78,0,0,1-1.48,1,19.13,19.13,0,0,1-3.2,1.53,30.37,30.37,0,0,1-13.14,1.28c-8.53-.88-16.43-3.83-23.74-7.58A86.77,86.77,0,0,1,55.78,107.71Z"/>
        <path class="cls-1" d="M130.59,41.54c-.17-.1-.14-.33-.12-.5a3.07,3.07,0,0,1,.14-.52,8.26,8.26,0,0,1,.43-1c.32-.63.68-1.24,1.05-1.83.77-1.18,1.6-2.3,2.46-3.41A81.1,81.1,0,0,1,140.12,28a107.19,107.19,0,0,1,12.71-11c1.13-.84,2.27-1.65,3.43-2.45l1.83-1.18,1.84-1.1c2.46-1.43,5-2.69,7.5-3.91,5.07-2.42,10.18-4.54,15.45-6.5L188,0,186.8,5.42c-.25,1.1-.48,2.45-.66,3.7s-.33,2.59-.48,3.89c-.28,2.6-.43,5.23-.56,7.86-.21,5.27-.12,10.58.19,15.89s.83,10.63,1.58,15.92c.35,2.66.83,5.29,1.36,7.92.26,1.31.56,2.62.91,3.92a35.26,35.26,0,0,0,1.16,3.88,41,41,0,0,1-3.64-7.33c-1-2.54-1.85-5.15-2.63-7.78a121.37,121.37,0,0,1-3.39-16.07,117.35,117.35,0,0,1-1.18-16.46c0-2.77.13-5.53.34-8.31.12-1.38,0-3-2.49-2s-5,2-7.53,3.12-4.95,2.2-7.34,3.39l-1.77.92-1.71,1q-1.76,1-3.48,2.1a160.84,160.84,0,0,0-13.41,9.28c-2.17,1.65-4.26,3.41-6.3,5.22-1,.91-2,1.85-3,2.84-.48.49-.95,1-1.38,1.52a9.56,9.56,0,0,0-.6.82,2.7,2.7,0,0,0-.24.44C130.54,41.22,130.46,41.41,130.59,41.54Z"/>
        <path class="cls-1" d="M118.55,41.54c.13-.13.06-.32,0-.47a2.7,2.7,0,0,0-.24-.44,7.81,7.81,0,0,0-.6-.82c-.43-.53-.89-1-1.37-1.52-1-1-1.94-1.93-3-2.84-2-1.81-4.14-3.57-6.31-5.22A162.36,162.36,0,0,0,93.67,21c-1.15-.72-2.32-1.42-3.48-2.1l-1.72-1L86.7,17q-3.58-1.78-7.34-3.39c-2.48-1.08-5-2.13-7.53-3.12s-2.61.61-2.49,2c.21,2.78.34,5.54.34,8.31A117.35,117.35,0,0,1,68.5,37.22a121.34,121.34,0,0,1-3.38,16.07c-.78,2.63-1.62,5.24-2.63,7.78a41,41,0,0,1-3.64,7.33A40.22,40.22,0,0,0,60,64.52c.34-1.3.64-2.61.91-3.92.52-2.63,1-5.26,1.36-7.92.74-5.29,1.27-10.62,1.58-15.92s.39-10.62.19-15.89c-.13-2.63-.28-5.26-.57-7.86-.14-1.3-.28-2.6-.47-3.89s-.42-2.6-.67-3.7L61.12,0l5.14,1.92c5.27,2,10.39,4.08,15.46,6.5,2.52,1.22,5,2.48,7.5,3.91l1.84,1.1,1.82,1.18c1.16.8,2.3,1.61,3.43,2.45A107.29,107.29,0,0,1,109,28a81,81,0,0,1,5.56,6.28c.86,1.11,1.69,2.23,2.46,3.41.37.59.73,1.2,1,1.83a10.45,10.45,0,0,1,.44,1,4.39,4.39,0,0,1,.13.52C118.69,41.21,118.72,41.44,118.55,41.54Z"/>
        <path class="cls-1" d="M239.05,57.46c-3.66.13-7.32-.41-10.94,0s-7.21,1-10.76,1.73-7.09,1.56-10.57,2.56-6.92,2.1-10.32,3.33c-1.69.65-3.38,1.28-5,2s-4.08,1.46-5.7,2.25c-3.26,1.57-5.89,2.78-9,4.57-5.54,3.16-16.66,11.66-20.18,8.8-2.85-2.32-.48-5.51,2.5-7.84s9.13-4.25,13.36-6.45A108.71,108.71,0,0,1,184,63.84c3.55-1.23,7.42-2.65,11-3.69s7.23-1.9,10.89-2.59,7.35-1.23,11-1.57a115.43,115.43,0,0,1,22.15,0Z"/>
        <path class="cls-1" d="M124.74,97.26a54.93,54.93,0,0,1,2.59-7A27.35,27.35,0,0,1,129.08,87a22.24,22.24,0,0,1,2.26-2.89,51,51,0,0,1,5.11-4.79c.45-.37.9-.72,1.36-1.07l.68-.51c.23-.17.49-.35.64-.48a5.18,5.18,0,0,0,1.57-2.08,7,7,0,0,0-.2-5.38A4.47,4.47,0,0,0,139,67.93a2.57,2.57,0,0,0-1.89-.42l-.25.06a2.87,2.87,0,0,0-.31.08l-.78.21-1.59.4c-1.07.25-2.15.49-3.25.66a40.15,40.15,0,0,1-6.6.44,46.64,46.64,0,0,1-6.55-.53c-1.09-.17-2.17-.39-3.24-.64-.54-.12-1.07-.26-1.61-.4l-.75-.2a3,3,0,0,0-.51-.09,2.55,2.55,0,0,0-1.86.54,4.88,4.88,0,0,0-1.43,2,7,7,0,0,0,0,5.37,5.32,5.32,0,0,0,1.65,2c.92.67,1.84,1.35,2.73,2.09a50.1,50.1,0,0,1,5.08,4.83,23.41,23.41,0,0,1,2.23,2.92,33.94,33.94,0,0,1,1.79,3.23,66.85,66.85,0,0,1,2.89,6.79c-.63-1-1.24-2.05-1.89-3.05s-1.28-2-1.95-3-1.34-1.9-2.06-2.76a22.09,22.09,0,0,0-2.31-2.33,45.92,45.92,0,0,0-5.2-4c-.91-.59-1.81-1.19-2.74-1.75a8.47,8.47,0,0,1-2.91-3.1,10.31,10.31,0,0,1-1.22-4.5,11.73,11.73,0,0,1,.73-4.6,9.15,9.15,0,0,1,2.56-3.79A6,6,0,0,1,111.88,63a6.4,6.4,0,0,1,1.07.14l.41.1.38.09c.5.12,1,.23,1.51.33q1.52.32,3,.51a44.21,44.21,0,0,0,6.09.44,38,38,0,0,0,6.07-.29c1-.14,2-.34,3-.56l1.52-.36.76-.19.47-.09a4.89,4.89,0,0,1,.53-.09,5.85,5.85,0,0,1,4.19,1.21,8.77,8.77,0,0,1,2.72,3.66,12,12,0,0,1,.88,4.57,11.6,11.6,0,0,1-.27,2.35,10.83,10.83,0,0,1-.78,2.2,8.43,8.43,0,0,1-2.82,3.25c-.3.21-.51.33-.74.47l-.68.43-1.36.88a46.15,46.15,0,0,0-5.22,4,23.13,23.13,0,0,0-2.34,2.3,28.23,28.23,0,0,0-2,2.78C127,93,125.87,95.12,124.74,97.26Z"/>
        <path class="cls-1" d="M249.63,83.66c-3.16-.77-6.35-1.39-9.55-1.85a87.34,87.34,0,0,0-9.69-.83,90.87,90.87,0,0,0-9.76.12,98.19,98.19,0,0,0-9.78,1c-1.63.28-3.25.53-4.88.93s-3.9.55-5.52,1c-3.23.87-5.83,1.5-9,2.64-5.65,2-17.6,8.31-19.77,4.39-1.76-3.18,1.17-6,4.4-7.75s9-2.26,13.26-3.56a85.19,85.19,0,0,1,11.22-2c3.39-.43,7.11-1,10.47-1.2a96.34,96.34,0,0,1,10.05-.07,90.13,90.13,0,0,1,9.88,1A83.21,83.21,0,0,1,249.84,83Z"/>
        <path class="cls-1" d="M249.77,105.52c-3.59-1.09-7.22-2-10.86-2.82s-7.33-1.4-11-1.86-7.39-.78-11.09-.94-7.39-.19-11.09-.09c-1.84.09-3.69.16-5.53.37s-4.43.1-6.26.36c-3.66.48-6.61.81-10.24,1.56-6.39,1.32-19.9,6.12-22.41,2.09-2-3.25,1.28-5.65,4.93-7s10.23-1.21,15-2A107.82,107.82,0,0,1,194,94.43c3.85-.05,8.06-.19,11.88,0s7.63.5,11.41,1,7.53,1.21,11.24,2.08A117.44,117.44,0,0,1,250,104.88Z"/>
        <path class="cls-1" d="M11,57.65c3.66.13,7.31.4,10.93.8s7.21,1,10.76,1.72,7.09,1.57,10.57,2.56,6.92,2.11,10.32,3.33c1.69.66,3.38,1.29,5,2s4.08,1.46,5.7,2.25c3.26,1.57,5.89,2.77,9,4.57C78.85,78.09,90,86.58,93.49,83.72c2.85-2.32.48-5.5-2.5-7.84s-9.13-4.25-13.36-6.44a106.63,106.63,0,0,0-11.58-4.6c-3.55-1.24-7.42-2.66-11-3.69s-7.23-1.91-10.89-2.59-7.35-1.23-11-1.58a115.43,115.43,0,0,0-22.15,0Z"/>
        <path class="cls-1" d="M.37,84.65c3.16-.77,6.35-1.38,9.55-1.85A92.44,92.44,0,0,1,19.61,82a90.87,90.87,0,0,1,9.76.12c3.26.15,6.52.53,9.78,1,1.63.28,3.25.54,4.88.94s3.9.54,5.52,1c3.23.87,5.83,1.5,9,2.63,5.65,2,17.6,8.31,19.77,4.39,1.76-3.17-1.17-6-4.4-7.74s-9-2.27-13.26-3.57a85.22,85.22,0,0,0-11.22-2c-3.39-.44-7.11-1-10.47-1.21a99.17,99.17,0,0,0-10-.07,92.64,92.64,0,0,0-9.88,1A83.23,83.23,0,0,0,.16,84Z"/>
        <path class="cls-1" d="M.23,106.52c3.59-1.09,7.22-2,10.86-2.83s7.33-1.4,11-1.85,7.39-.78,11.09-.94,7.39-.2,11.09-.1c1.84.09,3.69.16,5.53.37s4.43.11,6.26.36c3.66.49,6.61.82,10.24,1.57,6.39,1.32,19.9,6.11,22.41,2.09,2-3.26-1.28-5.66-4.93-7s-10.23-1.21-15-2A107.9,107.9,0,0,0,56,95.43c-3.85-.06-8.06-.19-11.88,0s-7.63.49-11.41,1-7.53,1.21-11.24,2.09A116.7,116.7,0,0,0,0,105.88Z"/>
      </g>
    </g>
  </g>
</svg>
