<svg xmlns="http://www.w3.org/2000/svg" viewBox="0 0 129.02 129.67">
  <defs>
    <style>
      .cls-1 {
        fill: #2f3542;
      }

      .cls-2 {
        fill: none;
        stroke: #2f3542;
        stroke-miterlimit: 10;
        stroke-width: 1.65px;
      }
    </style>
  </defs>
  <title>favicon</title>
  <g id="Layer_2" data-name="Layer 2">
    <g id="Layer_2-2" data-name="Layer 2">
      <g>
        <path class="cls-1" d="M39.86,129.48A30.37,30.37,0,0,0,53,128.2l.7-.28H31.48A55.08,55.08,0,0,0,39.86,129.48Z"/>
        <path class="cls-1" d="M129,62.22s0,0,0-.08v.09Z"/>
        <path class="cls-2" d="M65.18,97.26c-.39-.64-.79-1.27-1.18-1.9.4.81.78,1.62,1.17,2.45.09-.37.19-.73.3-1.09C65.37,96.9,65.27,97.08,65.18,97.26Z"/>
        <path class="cls-2" d="M69.52,87a22.24,22.24,0,0,1,2.26-2.89,51,51,0,0,1,5.11-4.79c.45-.37.9-.72,1.36-1.07l.68-.51c.23-.17.49-.35.64-.48a5.18,5.18,0,0,0,1.57-2.08,7,7,0,0,0-.2-5.38,4.47,4.47,0,0,0-1.49-1.87,2.57,2.57,0,0,0-1.89-.42l-.25.06a2.87,2.87,0,0,0-.31.08l-.78.21-1.59.4c-1.07.25-2.15.49-3.25.66a40.15,40.15,0,0,1-6.6.44,46.64,46.64,0,0,1-6.55-.53c-1.09-.17-2.17-.39-3.24-.64-.54-.12-1.07-.26-1.61-.4l-.75-.2a3,3,0,0,0-.51-.09,2.55,2.55,0,0,0-1.86.54,4.88,4.88,0,0,0-1.43,2,7,7,0,0,0,0,5.37,5.32,5.32,0,0,0,1.65,2c.92.67,1.84,1.35,2.73,2.09a50.1,50.1,0,0,1,5.08,4.83,23.41,23.41,0,0,1,2.23,2.92,33.94,33.94,0,0,1,1.79,3.23,66.85,66.85,0,0,1,2.89,6.79,54.93,54.93,0,0,1,2.59-7A27.35,27.35,0,0,1,69.52,87Z"/>
        <path class="cls-1" d="M64.54,101h0a35.57,35.57,0,0,0-.33,5.28,48.55,48.55,0,0,0,.33-5.13Z"/>
        <path class="cls-1" d="M91.85,121.32a36.33,36.33,0,0,1-5.4.18,25.18,25.18,0,0,1-5.13-.69,14.19,14.19,0,0,1-4.47-1.91,25.57,25.57,0,0,1-4.08-3.36,29.68,29.68,0,0,1-3.43-4.19,25.06,25.06,0,0,1-1.4-2.32l-.31-.59-.07-.14,0-.07a.52.52,0,0,1,0,.11l-.1-.32c-.13-.44-.23-.89-.35-1.34-.06-.23-.1-.46-.15-.69,0,.39.07.78.09,1.17a28.11,28.11,0,0,1,0,3.18q0,.41-.06.81l0,.41v.1a1.49,1.49,0,0,1-.08.32l0,.22c-.16.55-.33,1.07-.52,1.58l0,.09a28.12,28.12,0,0,0,3,4.75,26.72,26.72,0,0,0,4.5,4.52,18.21,18.21,0,0,0,6,3.1,33,33,0,0,0,12.65,1,66.07,66.07,0,0,0,23-7.17A84.8,84.8,0,0,0,129,111.45V109.2c-5.13,2.4-10.24,4.66-15.43,6.6C106.43,118.43,99.13,120.61,91.85,121.32Z"/>
        <path class="cls-1" d="M65.17,97.81l.08.18a17.53,17.53,0,0,1,.92,2.94C66.08,100,66,99.1,66,98.18a19.87,19.87,0,0,1,0-2.44l-.54,1C65.36,97.08,65.26,97.44,65.17,97.81Z"/>
        <path class="cls-1" d="M64,95.36l-.06-.09c.13,1,.31,2,.45,3a17,17,0,0,1,.15,2.77c.17-1.07.36-2.16.63-3.21C64.78,97,64.4,96.17,64,95.36Z"/>
        <path class="cls-1" d="M67,106a36.34,36.34,0,0,0-.76-5l0-.06s0,.09,0,.13A46.45,46.45,0,0,0,67,106Z"/>
        <path class="cls-1" d="M57.68,125.64c.43-.36.87-.7,1.28-1.07a26,26,0,0,0,4.35-5,26.91,26.91,0,0,0,2.94-5.72l-.31-.6a26.43,26.43,0,0,1-1.18-2.91l-.24-.76-.16-.59,0-.4c0-.52-.09-1-.11-1.55,0-.25,0-.5,0-.75,0,.25-.06.5-.1.74a28.3,28.3,0,0,1-.5,2.83c0,.23-.1.46-.16.68l-.09.34,0,.08a.45.45,0,0,1,0-.13l-.07.14c-.18.39-.39.81-.61,1.21a26.59,26.59,0,0,1-3.13,4.57,24.89,24.89,0,0,1-4,3.74c-.36.27-.74.52-1.1.77s-.7.42-1,.64a14.15,14.15,0,0,1-2.3.92,21.18,21.18,0,0,1-5.19.85,34.38,34.38,0,0,1-5.54-.15c-7.5-.76-15-3.08-22.38-5.9C12,115.29,6,112.5,0,109.57v1.53a89.5,89.5,0,0,0,16.12,10.8,75.66,75.66,0,0,0,15.36,6H53.7a20.82,20.82,0,0,0,2.5-1.25A16.78,16.78,0,0,0,57.68,125.64Z"/>
        <path class="cls-1" d="M64.32,108.61l0,.4.16.59.24.76a26.43,26.43,0,0,0,1.18,2.91l.31.6,0-.09c.19-.51.36-1,.52-1.58l0-.22a1.49,1.49,0,0,0,.08-.32v-.1l0-.41q0-.41.06-.81a28.11,28.11,0,0,0,0-3.18c0-.39-.06-.78-.09-1.17a46.45,46.45,0,0,1-.76-4.93s0-.08,0-.13A17.53,17.53,0,0,0,65.25,98l-.08-.18c-.27,1-.46,2.14-.63,3.21v.16a48.55,48.55,0,0,1-.33,5.13c0,.25,0,.5,0,.75C64.23,107.58,64.27,108.09,64.32,108.61Z"/>
        <path class="cls-1" d="M127.31,52.68c-.75-5.29-1.28-10.62-1.58-15.92s-.4-10.62-.19-15.89c.13-2.63.28-5.26.56-7.86.15-1.3.29-2.6.48-3.89s.41-2.6.66-3.7L128.47,0l-5.15,1.92c-5.27,2-10.38,4.08-15.45,6.5-2.53,1.22-5,2.48-7.5,3.91l-1.84,1.1L96.7,14.61c-1.16.8-2.3,1.61-3.43,2.45A107.19,107.19,0,0,0,80.56,28,81.1,81.1,0,0,0,75,34.32c-.86,1.11-1.69,2.23-2.46,3.41-.37.59-.73,1.2-1,1.83a8.26,8.26,0,0,0-.43,1,3.07,3.07,0,0,0-.14.52c0,.17,0,.4.12.5-.13-.13,0-.32,0-.47a2.7,2.7,0,0,1,.24-.44,9.56,9.56,0,0,1,.6-.82c.43-.53.9-1,1.38-1.52.94-1,1.94-1.93,3-2.84,2-1.81,4.13-3.57,6.3-5.22A160.84,160.84,0,0,1,95.92,21q1.72-1.08,3.48-2.1l1.71-1,1.77-.92c2.39-1.19,4.85-2.32,7.34-3.39s5-2.13,7.53-3.12,2.61.61,2.49,2c-.21,2.78-.34,5.54-.34,8.31a117.35,117.35,0,0,0,1.18,16.46,121.37,121.37,0,0,0,3.39,16.07c.78,2.63,1.61,5.24,2.63,7.78q.32.8.66,1.59l1.24-.43v-.09c-.11-.51-.23-1-.33-1.54C128.14,58,127.66,55.34,127.31,52.68Z"/>
        <path class="cls-1" d="M2.93,61.07c1-2.54,1.85-5.15,2.63-7.78A121.34,121.34,0,0,0,8.94,37.22a117.35,117.35,0,0,0,1.18-16.46c0-2.77-.13-5.53-.34-8.31-.12-1.38,0-3,2.49-2s5.05,2,7.53,3.12,4.95,2.2,7.34,3.39l1.77.92,1.72,1c1.16.68,2.33,1.38,3.48,2.1a162.36,162.36,0,0,1,13.4,9.28c2.17,1.65,4.27,3.41,6.31,5.22,1,.91,2,1.85,3,2.84.48.49.94,1,1.37,1.52a7.81,7.81,0,0,1,.6.82,2.7,2.7,0,0,1,.24.44c.06.15.13.34,0,.47.17-.1.14-.33.12-.5a4.39,4.39,0,0,0-.13-.52,10.45,10.45,0,0,0-.44-1c-.32-.63-.68-1.24-1-1.83-.77-1.18-1.6-2.3-2.46-3.41A81,81,0,0,0,49.47,28a107.29,107.29,0,0,0-12.72-11c-1.13-.84-2.27-1.65-3.43-2.45L31.5,13.43l-1.84-1.1c-2.46-1.43-5-2.69-7.5-3.91C17.09,6,12,3.88,6.7,1.92L1.56,0,2.78,5.42c.25,1.1.48,2.45.67,3.7s.33,2.59.47,3.89c.29,2.6.44,5.23.57,7.86.2,5.27.12,10.58-.19,15.89S3.46,47.39,2.72,52.68C2.37,55.34,1.88,58,1.36,60.6c-.16.76-.33,1.51-.5,2.27l1.14.4C2.32,62.54,2.63,61.81,2.93,61.07Z"/>
        <path class="cls-1" d="M127.76,62.66l-3.37,1.18a108.71,108.71,0,0,0-11.58,4.6c-4.23,2.2-10.37,4.12-13.36,6.45S94.1,80.41,97,82.73c3.52,2.86,14.64-5.64,20.18-8.8,3.15-1.79,5.78-3,9-4.57C127,69,128,68.58,129,68.21V65.34C128.56,64.46,128.15,63.57,127.76,62.66Z"/>
        <path class="cls-1" d="M129,62.23l-1.24.43c.39.91.8,1.8,1.24,2.68Z"/>
        <path class="cls-1" d="M64,95.36c.39.63.79,1.26,1.18,1.9a66.85,66.85,0,0,0-2.89-6.79,33.94,33.94,0,0,0-1.79-3.23,23.41,23.41,0,0,0-2.23-2.92,50.1,50.1,0,0,0-5.08-4.83c-.89-.74-1.81-1.42-2.73-2.09a5.32,5.32,0,0,1-1.65-2,7,7,0,0,1,0-5.37,4.88,4.88,0,0,1,1.43-2,2.55,2.55,0,0,1,1.86-.54,3,3,0,0,1,.51.09l.75.2c.54.14,1.07.28,1.61.4,1.07.25,2.15.47,3.24.64a46.64,46.64,0,0,0,6.55.53,40.15,40.15,0,0,0,6.6-.44c1.1-.17,2.18-.41,3.25-.66l1.59-.4.78-.21a2.87,2.87,0,0,1,.31-.08l.25-.06a2.57,2.57,0,0,1,1.89.42,4.47,4.47,0,0,1,1.49,1.87,7,7,0,0,1,.2,5.38,5.18,5.18,0,0,1-1.57,2.08c-.15.13-.41.31-.64.48l-.68.51c-.46.35-.91.7-1.36,1.07a51,51,0,0,0-5.11,4.79A22.24,22.24,0,0,0,69.52,87a27.35,27.35,0,0,0-1.75,3.29,54.93,54.93,0,0,0-2.59,7c.09-.18.19-.36.29-.54A13.77,13.77,0,0,1,66,95.26c0,.16,0,.32,0,.48.88-1.61,1.78-3.19,2.74-4.69a28.23,28.23,0,0,1,2-2.78A23.13,23.13,0,0,1,73.09,86a46.15,46.15,0,0,1,5.22-4l1.36-.88.68-.43c.23-.14.44-.26.74-.47A8.43,8.43,0,0,0,83.91,77a10.83,10.83,0,0,0,.78-2.2A11.6,11.6,0,0,0,85,72.44a12,12,0,0,0-.88-4.57,8.77,8.77,0,0,0-2.72-3.66A5.85,5.85,0,0,0,77.17,63a4.89,4.89,0,0,0-.53.09l-.47.09-.76.19-1.52.36c-1,.22-2,.42-3,.56a38,38,0,0,1-6.07.29,44.21,44.21,0,0,1-6.09-.44q-1.52-.19-3-.51c-.5-.1-1-.21-1.51-.33l-.38-.09-.41-.1A6.4,6.4,0,0,0,52.32,63a6,6,0,0,0-4.13,1.47,9.15,9.15,0,0,0-2.56,3.79,11.73,11.73,0,0,0-.73,4.6,10.31,10.31,0,0,0,1.22,4.5A8.47,8.47,0,0,0,49,80.43c.93.56,1.83,1.16,2.74,1.75a45.92,45.92,0,0,1,5.2,4,22.09,22.09,0,0,1,2.31,2.33c.72.86,1.39,1.81,2.06,2.76s1.32,2,1.95,3l.65,1.06v0Z"/>
        <path class="cls-1" d="M65.47,96.72l.54-1c0-.16,0-.32,0-.48A13.77,13.77,0,0,0,65.47,96.72Z"/>
        <path class="cls-1" d="M63.94,95.23v0l.06.09Z"/>
        <path class="cls-1" d="M112.09,91.05c1.85,3.34,10.81-.75,16.91-3.27V80c-4.15,1.14-9.48,1.7-12.51,3.34C113.26,85.06,110.33,87.87,112.09,91.05Z"/>
        <path class="cls-1" d="M121.68,95.19c-4.8.79-11.39.67-15,2s-7,3.75-4.93,7c2.51,4,16-.77,22.41-2.09,1.73-.36,3.3-.62,4.87-.84V94.58A65.7,65.7,0,0,0,121.68,95.19Z"/>
        <path class="cls-1" d="M13.75,74.93c5.54,3.16,16.66,11.65,20.18,8.79,2.85-2.32.48-5.5-2.5-7.84s-9.13-4.25-13.36-6.44a106.63,106.63,0,0,0-11.58-4.6L2,63.27a36.56,36.56,0,0,1-2,3.95v1.29c1.54.59,3.39,1.2,4.71,1.85C8,71.93,10.6,73.13,13.75,74.93Z"/>
        <path class="cls-1" d="M0,66.18v1a36.56,36.56,0,0,0,2-3.95l-1.14-.4c-.13.55-.27,1.1-.41,1.65S.16,65.63,0,66.18Z"/>
        <path class="cls-1" d="M18.79,92c1.76-3.17-1.17-6-4.4-7.74S5.37,82,1.13,80.73L0,80.42V88C5.94,90.31,16.73,95.75,18.79,92Z"/>
        <path class="cls-1" d="M29.16,105.19c2-3.26-1.28-5.66-4.93-7S14,97,9.2,96.18A80.16,80.16,0,0,0,0,95.51V102c2.22.3,4.34.61,6.75,1.11C13.14,104.42,26.65,109.21,29.16,105.19Z"/>
      </g>
    </g>
  </g>
</svg>
