<svg xmlns="http://www.w3.org/2000/svg" viewBox="0 0 480.24 129.87">
  <defs>
    <style>
      .cls-1 {
        fill: #f2f2f5;
      }
    </style>
  </defs>
  <title>Asset 1</title>
  <g id="Layer_2" data-name="Layer 2">
    <g id="Layer_1-2" data-name="Layer 1">
      <g>
        <path class="cls-1" d="M92.5,55.59H52.14a1.89,1.89,0,0,0-1.89,1.88V77.2a1.89,1.89,0,0,0,1.89,1.89H67.88v24.52s-3.53,1.2-13.3,1.2c-11.53,0-27.64-4.21-27.64-39.63S43.71,25.09,59.46,25.09c13.63,0,19.5,2.4,23.24,3.56A1.9,1.9,0,0,0,85,26.8l4.5-19.06a1.78,1.78,0,0,0-.72-1.48C87.22,5.18,78,0,54.58,0,27.63,0,0,11.46,0,66.56s31.64,63.31,58.3,63.31c22.08,0,35.47-9.43,35.47-9.43.55-.3.61-1.08.61-1.43V57.47A1.88,1.88,0,0,0,92.5,55.59Z"/>
        <path class="cls-1" d="M300.47,6.6a1.87,1.87,0,0,0-1.87-1.89H275.88A1.88,1.88,0,0,0,274,6.6V50.51H238.58V6.6a1.87,1.87,0,0,0-1.87-1.89H214a1.88,1.88,0,0,0-1.88,1.89V125.51a1.89,1.89,0,0,0,1.88,1.9h22.72a1.89,1.89,0,0,0,1.87-1.9V74.65H274l-.06,50.86a1.89,1.89,0,0,0,1.88,1.9H298.6a1.89,1.89,0,0,0,1.87-1.9Z"/>
        <g>
          <path class="cls-1" d="M135.38,22.2A14.66,14.66,0,1,0,120.72,37,14.72,14.72,0,0,0,135.38,22.2Z"/>
          <path class="cls-1" d="M133.75,100.42V45.54a1.89,1.89,0,0,0-1.88-1.9H109.22a2.17,2.17,0,0,0-2,2.12v78.63c0,2.31,1.44,3,3.3,3H131c2.24,0,2.79-1.1,2.79-3Z"/>
        </g>
        <path class="cls-1" d="M386.83,43.82H364.28a1.89,1.89,0,0,0-1.87,1.9V104a25.45,25.45,0,0,1-13.86,4.2c-8.13,0-10.29-3.69-10.29-11.65V45.72a1.89,1.89,0,0,0-1.88-1.9H313.5a1.89,1.89,0,0,0-1.88,1.9v54.7c0,23.64,13.18,29.43,31.31,29.43,14.87,0,26.86-8.22,26.86-8.22s.58,4.33.83,4.84a2,2,0,0,0,1.66,1l14.56-.06a1.89,1.89,0,0,0,1.88-1.9V45.72A1.89,1.89,0,0,0,386.83,43.82Z"/>
        <path class="cls-1" d="M448.46,41.15a42.42,42.42,0,0,0-21.52,5.71V6.6a1.88,1.88,0,0,0-1.87-1.89H402.28A1.89,1.89,0,0,0,400.4,6.6V125.51a1.9,1.9,0,0,0,1.88,1.9h15.81a1.88,1.88,0,0,0,1.65-1c.4-.64,1-5.48,1-5.48s9.32,8.83,27,8.83c20.71,0,32.58-10.51,32.58-47.16S461.28,41.15,448.46,41.15Zm-8.89,67a27,27,0,0,1-13.13-3.78V66.7a30.16,30.16,0,0,1,11.66-3.78C446.22,62.19,454,64.65,454,84,454,104.44,450.51,108.47,439.57,108.14Z"/>
        <path class="cls-1" d="M199.06,43.63H182s0-22.51,0-22.52c0-.85-.44-1.27-1.43-1.27H157.33c-.9,0-1.38.39-1.38,1.26V44.37s-11.64,2.81-12.43,3a1.89,1.89,0,0,0-1.36,1.81V63.84a1.89,1.89,0,0,0,1.88,1.9H156v35.18c0,26.13,18.33,28.7,30.69,28.7a52,52,0,0,0,13.53-2.23,1.77,1.77,0,0,0,1.07-1.71l0-16.08a1.92,1.92,0,0,0-1.89-1.9c-1,0-3.53.4-6.15.4-8.37,0-11.21-3.89-11.21-8.93V65.74h17.05a1.89,1.89,0,0,0,1.88-1.9V45.53A1.89,1.89,0,0,0,199.06,43.63Z"/>
      </g>
    </g>
  </g>
</svg>
